#!OML:ASF F:\VICON\USERDATA\INSTALL\rory3\rory3.ASF
:FULLY-SPECIFIED
:DEGREES
3002
root 5.85867 17.694 -7.79565 4.04373 -58.6436 16.362
lowerback 14.585 -0.396642 -1.07974
upperback 5.88303 -0.723432 9.28051
thorax -1.76772 -0.630582 10.7712
lowerneck -9.43979 -10.0857 -9.69973
upperneck 29.8066 -15.4535 7.17868
head 12.8324 -7.20261 2.10503
rclavicle -3.49861e-014 -1.27222e-014
rhumerus 2.72421 14.0355 -87.7779
rradius 36.5266
rwrist -41.2238
rhand -35.1561 -27.9814
rfingers 7.12502
rthumb -8.29541 -57.7986
lclavicle -3.49861e-014 -1.27222e-014
lhumerus -10.7367 -46.401 98.0368
lradius 52.7124
lwrist 16.6646
lhand -12.0866 52.75
lfingers 7.12502
lthumb 13.9735 -1357.74
rfemur -47.2846 -14.2912 17.9546
rtibia 55.3425
rfoot -6.97741 7.63012
rtoes 6.96244
lfemur -26.3764 5.58319 -32.1441
ltibia 24.8522
lfoot -14.3085 -4.42351
ltoes -8.81278
3003
root 5.88897 17.7087 -7.80316 4.25593 -58.4579 16.2381
lowerback 14.5699 -0.554863 -1.0533
upperback 5.91594 -0.932224 9.15193
thorax -1.68793 -0.735481 10.639
lowerneck -9.60409 -9.99059 -9.54416
upperneck 29.925 -15.4006 7.33128
head 12.9102 -7.13968 2.13771
rclavicle -7.4743e-014 -1.04958e-013
rhumerus 4.04865 12.9013 -86.8599
rradius 36.5099
rwrist -40.7745
rhand -35.4429 -27.8395
rfingers 7.12502
rthumb -8.57218 -57.6455
lclavicle -7.4743e-014 -1.04958e-013
lhumerus -8.50831 -47.1966 97.2645
lradius 52.3526
lwrist 16.294
lhand -11.9882 52.621
lfingers 7.12502
lthumb 14.0684 -1357.88
rfemur -46.552 -14.1974 18.1611
rtibia 54.2755
rfoot -6.26225 8.51938
rtoes 15.1043
lfemur -26.6637 5.33534 -31.9545
ltibia 24.896
lfoot -14.0507 -5.05915
ltoes -5.92767
3004
root 5.92045 17.7042 -7.81659 4.5885 -58.219 16.0173
lowerback 14.5484 -0.716971 -0.952869
upperback 5.88754 -1.12956 9.03866
thorax -1.67495 -0.828994 10.479
lowerneck -9.40588 -9.88986 -9.53406
upperneck 29.7699 -15.3589 7.67125
head 12.8326 -7.09432 2.28317
rclavicle 2.38542e-014 -1.27222e-014
rhumerus 5.29813 11.6667 -85.9935
rradius 36.4741
rwrist -40.3716
rhand -35.9267 -27.7553
rfingers 7.12502
rthumb -9.03911 -57.5416
lclavicle 2.38542e-014 -1.27222e-014
lhumerus -6.24221 -48.1776 96.3397
lradius 52.0448
lwrist 16.2813
lhand -12.3215 52.4969
lfingers 7.12502
lthumb 13.7471 -1357.98
rfemur -45.875 -13.8872 18.3291
rtibia 52.9552
rfoot -6.99104 8.57626
rtoes 17.9065
lfemur -26.9087 5.58289 -31.8964
ltibia 24.9355
lfoot -14.1417 -5.7385
ltoes -6.16201
3005
root 5.95017 17.6954 -7.83424 4.85778 -57.963 15.964
lowerback 14.5079 -0.89716 -1.0052
upperback 5.80967 -1.36554 8.96869
thorax -1.69272 -0.941711 10.4675
lowerneck -9.14808 -9.74708 -9.89553
upperneck 29.6304 -15.25 8.20168
head 12.7957 -7.04076 2.5727
rclavicle -2.38542e-014 6.04305e-014
rhumerus 6.51823 10.5584 -85.0234
rradius 36.4671
rwrist -40.258
rhand -36.1444 -27.622
rfingers 7.12502
rthumb -9.24915 -57.3991
lclavicle -2.38542e-014 6.04305e-014
lhumerus -3.94733 -48.9277 95.3692
lradius 51.8186
lwrist 16.0896
lhand -12.4659 52.73
lfingers 7.12502
lthumb 13.608 -1357.73
rfemur -45.3448 -13.4497 18.332
rtibia 51.4857
rfoot -9.33134 7.44772
rtoes 14.7166
lfemur -27.224 5.82822 -31.9546
ltibia 24.9319
lfoot -14.1413 -6.34096
ltoes -6.63931
3006
root 5.98091 17.6968 -7.84898 5.20019 -57.6829 15.9645
lowerback 14.3898 -1.09209 -1.11246
upperback 5.74787 -1.63241 8.92315
thorax -1.64291 -1.0739 10.5168
lowerneck -9.33686 -9.61515 -10.2395
upperneck 29.8183 -15.1393 8.62575
head 12.9755 -6.974 2.79768
rclavicle 4.45278e-014 1.27222e-014
rhumerus 7.8197 9.54719 -83.9363
rradius 36.5841
rwrist -40.6687
rhand -35.6777 -27.2972
rfingers 7.12502
rthumb -8.79879 -57.0938
lclavicle 4.45278e-014 1.27222e-014
lhumerus -1.60187 -49.278 94.4982
lradius 51.5224
lwrist 15.6173
lhand -12.5143 52.4888
lfingers 7.12502
lthumb 13.5614 -1357.97
rfemur -45.0269 -13.0968 18.2992
rtibia 50.0409
rfoot -11.9411 5.63432
rtoes 9.86609
lfemur -27.6735 5.67201 -31.9638
ltibia 24.8517
lfoot -13.9732 -6.73511
ltoes -6.2437
3007
root 6.01198 17.6984 -7.869 5.60776 -57.377 15.9576
lowerback 14.246 -1.20698 -1.16894
upperback 5.66106 -1.78417 8.87624
thorax -1.62952 -1.14481 10.5147
lowerneck -9.59026 -9.55485 -10.3601
upperneck 30.0401 -15.1276 8.89478
head 13.1597 -6.93934 2.91047
rclavicle -9.54166e-015 6.83819e-014
rhumerus 9.07063 8.26412 -82.859
rradius 36.7141
rwrist -41.0492
rhand -35.2647 -27.0351
rfingers 7.12502
rthumb -8.4002 -56.8481
lclavicle -9.54166e-015 6.83819e-014
lhumerus 0.66446 -49.8846 93.6985
lradius 51.3482
lwrist 15.6407
lhand -13.5303 52.9137
lfingers 7.12502
lthumb 12.582 -1357.49
rfemur -44.8983 -12.8044 18.3312
rtibia 48.7757
rfoot -13.4325 4.37937
rtoes 9.59523
lfemur -28.1618 5.49884 -31.9306
ltibia 24.738
lfoot -13.9439 -7.24559
ltoes -5.55435
